<svg width="40" height="31" viewBox="0 0 40 31" fill="#ffffff" xmlns="http://www.w3.org/2000/svg">
<path d="M25.6023 25.6359C26.4463 24.9053 29.2266 22.302 29.2266 19.7456V17.2055H1.802V19.7456C1.802 22.302 4.58236 24.9053 5.42639 25.6359H25.6023ZM34.9426 2.77156C38.1703 2.77156 40 6.17185 40 9.09435C40 11.281 39.0478 13.6625 37.1078 14.8098V26.9418C37.1078 27.9453 36.2915 28.7665 35.2933 28.7665H34.5956C33.5973 28.7665 32.7821 27.9484 32.7821 26.9418V14.8124C30.8368 13.6625 29.8888 11.281 29.8888 9.09435C29.8888 6.17448 31.7185 2.77156 34.9426 2.77156ZM34.9426 4.25968C32.5777 4.25968 31.3642 7.02574 31.3642 9.09435C31.3642 11.3078 32.2537 12.9661 34.2569 13.8827V26.9418C34.2569 27.1335 34.4074 27.2794 34.5956 27.2794H35.2933C35.4804 27.2794 35.6319 27.1272 35.6319 26.9418V13.8827C37.6325 12.9719 38.5246 11.302 38.5246 9.09435C38.5246 7.02363 37.3132 4.25968 34.9426 4.25968ZM11.0791 5.97009C11.3043 4.80067 13.075 5.14359 12.8471 6.31776C12.4552 8.33633 9.82793 9.99249 11.5808 12.2755C12.417 13.1183 11.1455 14.4005 10.3082 13.5566C7.45051 10.0452 10.6631 8.13089 11.0791 5.97009ZM5.29417 1.46149C4.57818 0.518571 6.00546 -0.5829 6.72198 0.360014C11.7083 6.90669 6.84479 7.05682 6.84479 10.1563C6.84479 11.5812 7.37682 12.2755 7.37682 12.2755C8.21354 13.1183 6.942 14.4005 6.10476 13.5566C6.10476 13.5566 5.04331 12.2555 5.04331 10.1563C5.04331 6.29353 9.40094 6.85401 5.29417 1.46149ZM26.8315 26.9513V31H4.19405V26.9513C3.12894 26.0099 0 22.9726 0 19.7456V15.3892H31.0276V19.7456C31.0276 22.9742 27.895 26.012 26.8315 26.9513ZM5.99605 27.4522V29.1837H25.0295V27.4522H5.99605Z" fill="#ffffff"/>
</svg>

