<svg width="48" height="34" viewBox="0 0 48 34" fill="#ffffff" xmlns="http://www.w3.org/2000/svg">
<path d="M41.6218 22.1295H44.2735C44.7672 22.1283 45.2557 22.0301 45.7101 21.841C46.1645 21.6519 46.5754 21.3755 46.9188 21.0284C47.6144 20.3215 48.002 19.3779 47.9998 18.3967C48.01 17.4187 47.6235 16.4766 46.925 15.7769C46.2266 15.0772 45.2731 14.677 44.2735 14.6639H43.5486V12.2251H18.1128V15.6468C18.1127 16.8227 18.2884 17.9923 18.6343 19.1184C18.1573 19.1184 17.6804 19.0686 17.1971 19.0686C14.3506 19.0654 11.529 19.5867 8.87967 20.6053C8.4714 20.7583 8.12924 21.0439 7.91046 21.4142C7.69167 21.7846 7.60955 22.2172 7.67783 22.6397L7.74778 23.0939C6.42461 23.7818 5.18703 24.6168 4.0596 25.5824C3.82483 25.7904 3.64668 26.0523 3.54121 26.3445C3.43575 26.6366 3.40629 26.9499 3.4555 27.256L3.5954 28.1145C2.53315 28.8603 1.53565 29.6905 0.613061 30.5969C0.319845 30.8807 0.120159 31.2439 0.0396984 31.6398C-0.0407621 32.0356 0.00168473 32.4459 0.161577 32.8179C0.298652 33.1586 0.535113 33.4523 0.841525 33.6625C1.14794 33.8727 1.51077 33.9901 1.88485 34H32.3378C32.718 33.9956 33.0883 33.8802 33.401 33.6685C33.7138 33.4567 33.9547 33.1584 34.0928 32.8117C34.253 32.4412 34.2962 32.0323 34.2169 31.6376C34.1375 31.2429 33.9393 30.8805 33.6477 30.5969C33.0675 30.0418 32.4584 29.5164 31.8227 29.0229H41.9461C42.2802 29.0231 42.6111 28.959 42.9199 28.8341C43.2287 28.7092 43.5093 28.526 43.7457 28.295L44.9094 27.1564H46.3974V25.9122H37.7365C39.3041 24.951 40.6316 23.6585 41.6218 22.1295ZM43.5295 15.9081H44.2671C44.9294 15.9212 45.5594 16.1904 46.0194 16.6567C46.4794 17.1231 46.7319 17.7487 46.7217 18.3967C46.7236 19.0524 46.466 19.6833 46.0031 20.1574C45.7781 20.386 45.5085 20.5681 45.2104 20.6931C44.9122 20.8182 44.5915 20.8835 44.2671 20.8853H42.3276C42.3785 20.7795 42.4357 20.68 42.4866 20.5742C43.1573 19.1049 43.5144 17.5172 43.5358 15.9081H43.5295ZM1.31254 32.3513C1.24938 32.2074 1.23137 32.0483 1.26081 31.8943C1.29025 31.7404 1.3658 31.5984 1.47788 31.4865C2.21522 30.7793 3.00134 30.1224 3.83068 29.5206L4.35211 32.7619H1.88485C1.75854 32.7569 1.63664 32.7151 1.5347 32.642C1.43276 32.5689 1.35542 32.4677 1.31254 32.3513ZM4.72729 27.1005C4.71032 26.9999 4.71883 26.8969 4.7521 26.8003C4.78536 26.7038 4.84235 26.6167 4.91806 26.5467C5.85728 25.7322 6.88016 25.015 7.97034 24.4066L9.31844 32.7682H5.63662L4.72729 27.1005ZM23.7023 32.7682H10.6029L8.94326 22.4468C8.91972 22.3035 8.94816 22.1566 9.02364 22.0317C9.09913 21.9067 9.21691 21.8115 9.35659 21.7625C14.4 19.8343 20.0006 19.8343 25.0441 21.7625C25.1838 21.8115 25.3015 21.9067 25.377 22.0317C25.4525 22.1566 25.4809 22.3035 25.4574 22.4468L23.8041 32.7619L23.7023 32.7682ZM25.0822 32.7682L26.424 24.4128C27.5147 25.018 28.5377 25.7332 29.4762 26.5467C29.552 26.6167 29.6089 26.7038 29.6422 26.8003C29.6755 26.8969 29.684 26.9999 29.667 27.1005L28.7577 32.7682H25.0822ZM32.9101 32.3513C32.8668 32.4686 32.7885 32.5705 32.6853 32.6437C32.5821 32.7169 32.4588 32.7581 32.3314 32.7619H30.0422L30.5445 29.6512C31.3187 30.2259 32.0536 30.8493 32.7447 31.5177C32.8512 31.6264 32.9235 31.7628 32.9528 31.9107C32.9821 32.0585 32.9673 32.2115 32.9101 32.3513ZM42.8681 27.424C42.6307 27.6576 42.3083 27.7896 41.9715 27.791H30.8434L30.9261 27.2933C30.9261 27.2498 30.9261 27.2124 30.9261 27.1689H43.1289L42.8681 27.424ZM34.8368 25.9122H30.5954C30.5162 25.8008 30.4245 25.6986 30.322 25.6073C29.1959 24.6401 27.9581 23.8049 26.6338 23.1188L26.7101 22.6584C26.7784 22.2359 26.6963 21.8032 26.4775 21.4329C26.2587 21.0626 25.9165 20.777 25.5083 20.624C23.7446 19.9478 21.9008 19.4922 20.0205 19.2677C19.6017 18.113 19.3867 16.897 19.3846 15.6717V13.4942H42.2768V15.6717C42.2835 17.1937 41.9583 18.6997 41.3229 20.0889C40.7022 21.4393 39.807 22.652 38.6919 23.6531C37.5769 24.6542 36.2652 25.4228 34.8368 25.9122Z" fill="#ffffff"/>
<path d="M29.0502 6.25874C29.5398 6.68179 29.7942 6.92443 29.7942 7.45325C29.7942 7.98207 29.5398 8.2247 29.0566 8.64776C28.7063 8.88745 28.4184 9.20433 28.2163 9.57283C28.0142 9.94134 27.9034 10.3512 27.8929 10.7693H29.1647C29.1647 10.2467 29.419 9.9978 29.9023 9.57475C30.2497 9.33563 30.5353 9.02044 30.7362 8.65428C30.9371 8.28812 31.0479 7.88112 31.0596 7.46569C31.0475 7.04275 30.9328 6.62869 30.7249 6.25766C30.5171 5.88663 30.222 5.56927 29.8641 5.33175C29.3745 4.90869 29.1201 4.66606 29.1201 4.13724C29.1201 3.60842 29.3745 3.36578 29.8578 2.94273C30.2081 2.70303 30.4959 2.38616 30.698 2.01765C30.9002 1.64914 31.011 1.23932 31.0215 0.821226H29.7497C29.7497 1.34382 29.4953 1.59268 29.012 2.01574C28.6606 2.25475 28.3715 2.57133 28.1683 2.93988C27.965 3.30843 27.8532 3.7186 27.842 4.13724C27.8575 4.55914 27.9751 4.97143 28.1852 5.34022C28.3952 5.70902 28.6917 6.02381 29.0502 6.25874Z" fill="#ffffff"/>
<path d="M34.3154 7.82653C33.9631 8.06617 33.6735 8.38374 33.4702 8.75344C33.2669 9.12315 33.1556 9.53456 33.1453 9.95425H34.4171C34.4171 9.42543 34.6715 9.1828 35.1611 8.75974C35.5126 8.52073 35.8016 8.20414 36.0049 7.8356C36.2082 7.46705 36.3199 7.05688 36.3312 6.63824C36.3216 6.21909 36.2113 5.80802 36.0092 5.43836C35.807 5.0687 35.5186 4.75083 35.1675 4.51052C34.6842 4.08747 34.4299 3.83861 34.4299 3.31601C34.4299 2.79341 34.6842 2.54456 35.1738 2.1215C35.523 1.88114 35.8096 1.56397 36.0106 1.1955C36.2116 0.827032 36.3214 0.417554 36.3312 0H35.0594C35.0594 0.522598 34.805 0.771455 34.3154 1.19451C33.9639 1.43353 33.6749 1.75011 33.4716 2.11866C33.2684 2.48721 33.1566 2.89738 33.1453 3.31601C33.1561 3.73561 33.2676 4.14684 33.4709 4.51647C33.6741 4.88609 33.9634 5.20374 34.3154 5.44373C34.7987 5.86679 35.053 6.11564 35.053 6.63824C35.053 7.16084 34.7987 7.40348 34.3154 7.82653Z" fill="#ffffff"/>
</svg>

