<svg width="42" height="38" viewBox="0 0 42 38" fill="#ffffff" xmlns="http://www.w3.org/2000/svg">
<path d="M2.1 33.7776H5.656C5.82418 34.9491 6.40627 36.0204 7.29577 36.7958C8.18527 37.5711 9.32271 37.9986 10.5 38H31.5C32.6773 37.9986 33.8147 37.5711 34.7042 36.7958C35.5937 36.0204 36.1758 34.9491 36.344 33.7776H39.9C40.457 33.7776 40.9911 33.5552 41.3849 33.1593C41.7787 32.7634 42 32.2264 42 31.6664C42 31.1065 41.7787 30.5695 41.3849 30.1736C40.9911 29.7777 40.457 29.5553 39.9 29.5553H30.9988L33.1149 25.5264C33.4858 24.8154 33.6783 24.024 33.6755 23.2211C33.6727 22.4182 33.4747 21.6282 33.0988 20.9198L32.5605 19.9043L36.4168 17.9789C36.6354 18.3803 36.9481 18.7221 37.3278 18.9746C37.7074 19.227 38.1426 19.3827 38.5955 19.428C39.0485 19.4733 39.5056 19.4069 39.9273 19.2345C40.349 19.0621 40.7225 18.789 41.0155 18.4388C41.3085 18.0885 41.5122 17.6718 41.6088 17.2246C41.7055 16.7774 41.6922 16.3133 41.5702 15.8724C41.4482 15.4315 41.2211 15.0272 40.9086 14.6944C40.5961 14.3617 40.2076 14.1105 39.7768 13.9628C39.7173 13.9424 39.6571 13.9241 39.5969 13.9079C39.7748 13.4806 39.845 13.0159 39.8015 12.5548C39.7579 12.0937 39.6018 11.6506 39.3471 11.2647C39.0924 10.8788 38.7469 10.562 38.3412 10.3425C37.9355 10.1229 37.4823 10.0074 37.0216 10.0062C36.5609 10.0049 36.107 10.118 35.7002 10.3353C35.2933 10.5526 34.9461 10.8675 34.6893 11.252C34.4325 11.6365 34.2741 12.0788 34.228 12.5396C34.182 13.0005 34.2497 13.4656 34.4253 13.8938L30.4451 15.9142L29.4595 14.0578C29.1258 13.4275 28.6596 12.8777 28.0932 12.4468C27.5269 12.0159 26.874 11.7141 26.18 11.5623L21.0091 10.4293C19.5353 10.1068 17.9954 10.3266 16.6691 11.0486L8.1592 15.6806C6.93957 16.3447 5.92122 17.3279 5.21194 18.5262C4.50265 19.7245 4.12881 21.0933 4.13 22.4877C4.1284 24.0187 4.55534 25.5192 5.362 26.8178L7.0637 29.5553H2.1C1.54305 29.5553 1.0089 29.7777 0.615076 30.1736C0.221249 30.5695 0 31.1065 0 31.6664C0 32.2264 0.221249 32.7634 0.615076 33.1593C1.0089 33.5552 1.54305 33.7776 2.1 33.7776ZM31.5 36.5925H10.5C9.69342 36.5917 8.91182 36.3112 8.287 35.7984C7.66217 35.2856 7.23235 34.5719 7.07 33.7776H34.93C34.7677 34.5719 34.3378 35.2856 33.713 35.7984C33.0882 36.3112 32.3066 36.5917 31.5 36.5925ZM29.7269 17.5715L30.3947 18.8129L30.8147 19.6003L28.469 24.0085C28.178 24.5894 27.7319 25.0773 27.1806 25.4176C26.6293 25.758 25.9946 25.9372 25.3477 25.9353H25.13C24.4016 25.9353 23.686 25.7426 23.0551 25.3764C22.4243 25.0103 21.9005 24.4837 21.5362 23.8495C21.172 23.2153 20.9803 22.4959 20.9803 21.7636C20.9803 21.0313 21.172 20.3119 21.5362 19.6777L21.7238 19.3512C22.0318 18.8172 22.4737 18.3737 23.0054 18.065C23.5371 17.7563 24.1401 17.5932 24.7541 17.5919L29.7269 17.5715ZM36.2978 14.5194L35.7637 13.4575C35.6389 13.209 35.5903 12.9289 35.6238 12.6526C35.6574 12.3763 35.7717 12.1162 35.9523 11.9052C36.1329 11.6942 36.3717 11.5418 36.6385 11.4672C36.9052 11.3927 37.188 11.3993 37.451 11.4863C37.714 11.5733 37.9455 11.7367 38.1161 11.9559C38.2867 12.1752 38.3888 12.4403 38.4096 12.7179C38.4303 12.9955 38.3687 13.273 38.2325 13.5154C38.0963 13.7578 37.8918 13.9541 37.6446 14.0796L37.6523 14.0944L37.6369 14.1014L38.255 15.3681C38.5035 15.2452 38.7826 15.1992 39.0571 15.2358C39.3316 15.2724 39.5891 15.39 39.7971 15.5738C40.0051 15.7576 40.1543 15.9992 40.2257 16.2682C40.297 16.5372 40.2875 16.8214 40.1982 17.0849C40.1089 17.3484 39.9439 17.5794 39.724 17.7486C39.5041 17.9178 39.2393 18.0177 38.9629 18.0356C38.6866 18.0535 38.4112 17.9886 38.1715 17.8491C37.9319 17.7096 37.7388 17.5018 37.6166 17.252L37.051 16.0951L31.9046 18.6637L31.1031 17.157L36.2978 14.5194ZM6.5478 26.0725C5.88086 24.9969 5.52817 23.7545 5.53 22.487C5.52932 21.3459 5.83558 20.2259 6.41635 19.2454C6.99712 18.265 7.8308 17.4607 8.8291 16.9177L17.332 12.2865C18.3637 11.7241 19.5621 11.553 20.7088 11.8044L25.8804 12.9374C26.3761 13.0459 26.8424 13.2615 27.2468 13.5693C27.6513 13.8771 27.9843 14.2698 28.2226 14.72L28.9926 16.1668L24.7513 16.1844C23.8918 16.1861 23.0478 16.4144 22.3035 16.8467C21.5593 17.2789 20.9408 17.8998 20.51 18.6475L20.3224 18.974C19.8353 19.8223 19.5788 20.7845 19.5789 21.764C19.579 22.7434 19.8355 23.7056 20.3228 24.5538C20.81 25.402 21.5108 26.1063 22.3547 26.5958C23.1985 27.0854 24.1557 27.343 25.13 27.3427H25.3512C26.2545 27.346 27.1409 27.0968 27.9114 26.6228C28.6819 26.1488 29.3061 25.4688 29.7143 24.6587L31.6085 21.095L31.8675 21.582C32.1359 22.0878 32.2772 22.6519 32.2793 23.2252C32.2814 23.7984 32.1441 24.3635 31.8794 24.8713L29.4154 29.5553H8.7143L6.5478 26.0725ZM2.1 30.9627H39.9C40.0857 30.9627 40.2637 31.0369 40.395 31.1688C40.5262 31.3008 40.6 31.4798 40.6 31.6664C40.6 31.8531 40.5262 32.0321 40.395 32.1641C40.2637 32.296 40.0857 32.3702 39.9 32.3702H2.1C1.91435 32.3702 1.7363 32.296 1.60503 32.1641C1.47375 32.0321 1.4 31.8531 1.4 31.6664C1.4 31.4798 1.47375 31.3008 1.60503 31.1688C1.7363 31.0369 1.91435 30.9627 2.1 30.9627Z" fill="#ffffff"/>
<path d="M12.117 16.6137L9.5501 19.0768C9.41578 19.2056 9.33789 19.3829 9.33356 19.5695C9.32922 19.7561 9.39881 19.9368 9.527 20.0718C9.65519 20.2069 9.83149 20.2852 10.0171 20.2895C10.2027 20.2939 10.3825 20.2239 10.5168 20.095L13.083 17.632C13.2128 17.5022 13.2868 17.3264 13.2892 17.1424C13.2916 16.9583 13.2222 16.7806 13.0958 16.6475C12.9695 16.5143 12.7962 16.4361 12.6133 16.4298C12.4303 16.4235 12.2521 16.4895 12.117 16.6137Z" fill="#ffffff"/>
<path d="M17.017 16.6137L14.4501 19.0768C14.3158 19.2056 14.2379 19.3829 14.2336 19.5695C14.2292 19.7561 14.2988 19.9368 14.427 20.0718C14.5552 20.2069 14.7315 20.2852 14.9171 20.2895C15.1027 20.2939 15.2825 20.2239 15.4168 20.095L17.983 17.632C18.1128 17.5022 18.1868 17.3264 18.1892 17.1424C18.1916 16.9583 18.1222 16.7806 17.9958 16.6475C17.8695 16.5143 17.6962 16.4361 17.5133 16.4298C17.3303 16.4235 17.1521 16.4895 17.017 16.6137Z" fill="#ffffff"/>
<path d="M14.602 7.5511C14.4529 7.67636 14.3045 7.80092 14.1659 7.93463C14.0317 8.0636 13.9539 8.24089 13.9497 8.4275C13.9455 8.61411 14.0152 8.79476 14.1435 8.9297C14.2718 9.06464 14.4481 9.14283 14.6338 9.14705C14.8194 9.15127 14.9991 9.08119 15.1333 8.95222C15.2495 8.84033 15.3741 8.73688 15.4987 8.63202C15.8828 8.38134 16.2015 8.04164 16.4279 7.64145C16.6544 7.24127 16.782 6.79229 16.8 6.33224C16.7821 5.872 16.6544 5.42281 16.4279 5.02248C16.2013 4.62215 15.8824 4.28238 15.498 4.03175C14.9737 3.59122 14.7 3.33788 14.7 2.8136C14.7 2.28932 14.9737 2.03387 15.4987 1.59475C15.6471 1.47019 15.7948 1.34563 15.9327 1.21332C15.9993 1.14956 16.0527 1.07324 16.0899 0.98872C16.1271 0.904203 16.1474 0.813145 16.1496 0.720744C16.1518 0.628343 16.1359 0.536409 16.1028 0.450192C16.0696 0.363974 16.0199 0.285161 15.9565 0.218253C15.8931 0.151345 15.8172 0.0976514 15.7331 0.0602384C15.649 0.0228254 15.5584 0.00242553 15.4665 0.000203725C15.3746 -0.00201808 15.2832 0.0139817 15.1974 0.0472893C15.1116 0.080597 15.0333 0.13056 14.9667 0.194326C14.8512 0.305515 14.7266 0.409667 14.602 0.513115C14.2176 0.763741 13.8987 1.10351 13.6721 1.50384C13.4456 1.90418 13.3179 2.35336 13.3 2.8136C13.3181 3.27364 13.4457 3.72259 13.6721 4.12277C13.8986 4.52295 14.2172 4.86266 14.6013 5.11338C15.1263 5.55181 15.4 5.80515 15.4 6.33224C15.4 6.85933 15.1263 7.11127 14.602 7.5511Z" fill="#ffffff"/>
<path d="M27.202 7.5511C27.0529 7.67636 26.9045 7.80092 26.7659 7.93463C26.6994 7.99849 26.6461 8.07488 26.609 8.15945C26.5719 8.24402 26.5518 8.3351 26.5497 8.4275C26.5455 8.61411 26.6152 8.79476 26.7435 8.9297C26.8718 9.06464 27.0481 9.14282 27.2338 9.14705C27.4194 9.15127 27.5991 9.08119 27.7333 8.95222C27.8488 8.84103 27.9741 8.73688 28.0987 8.63273C28.4827 8.38176 28.8013 8.0419 29.0277 7.64163C29.2541 7.24136 29.3818 6.79235 29.4 6.33224C29.3821 5.872 29.2544 5.42281 29.0279 5.02248C28.8013 4.62215 28.4824 4.28238 28.098 4.03175C27.5737 3.59122 27.3 3.33788 27.3 2.8136C27.3 2.28932 27.5737 2.03387 28.0987 1.59475C28.2471 1.47019 28.3948 1.34563 28.5327 1.21332C28.6671 1.08454 28.7451 0.907356 28.7496 0.720744C28.7541 0.534132 28.6846 0.35338 28.5565 0.218253C28.4284 0.0831253 28.2522 0.00469076 28.0665 0.000203625C27.8809 -0.00428352 27.7011 0.0655444 27.5667 0.194326C27.4512 0.305515 27.3266 0.409667 27.202 0.513115C26.8176 0.763741 26.4987 1.10351 26.2721 1.50384C26.0456 1.90418 25.9179 2.35336 25.9 2.8136C25.9181 3.27364 26.0457 3.72259 26.2721 4.12277C26.4986 4.52295 26.8172 4.86266 27.2013 5.11338C27.7263 5.55181 28 5.80515 28 6.33224C28 6.85933 27.7263 7.11127 27.202 7.5511Z" fill="#ffffff"/>
<path d="M20.902 7.5511C20.7529 7.67636 20.6045 7.80092 20.4659 7.93463C20.3317 8.0636 20.2539 8.24089 20.2497 8.4275C20.2455 8.61411 20.3152 8.79476 20.4435 8.9297C20.5718 9.06464 20.7481 9.14283 20.9338 9.14705C21.1194 9.15127 21.2991 9.08119 21.4333 8.95222C21.5495 8.84033 21.6741 8.73688 21.7987 8.63202C22.1828 8.38134 22.5015 8.04164 22.7279 7.64145C22.9544 7.24127 23.082 6.79229 23.1 6.33224C23.0821 5.872 22.9544 5.42281 22.7279 5.02248C22.5013 4.62215 22.1824 4.28238 21.798 4.03175C21.2737 3.59122 21 3.33788 21 2.8136C21 2.28932 21.2737 2.03387 21.7987 1.59475C21.9471 1.47019 22.0948 1.34563 22.2327 1.21332C22.2993 1.14956 22.3527 1.07324 22.3899 0.98872C22.4271 0.904203 22.4474 0.813145 22.4496 0.720744C22.4518 0.628343 22.4359 0.536409 22.4028 0.450192C22.3696 0.363974 22.3199 0.285161 22.2565 0.218253C22.1931 0.151345 22.1172 0.0976514 22.0331 0.0602384C21.949 0.0228254 21.8584 0.00242553 21.7665 0.000203726C21.6746 -0.00201808 21.5832 0.0139817 21.4974 0.0472893C21.4116 0.080597 21.3333 0.13056 21.2667 0.194326C21.1512 0.305515 21.0266 0.409667 20.902 0.513115C20.5176 0.763741 20.1987 1.10351 19.9721 1.50384C19.7456 1.90418 19.6179 2.35336 19.6 2.8136C19.6181 3.27364 19.7457 3.72259 19.9721 4.12277C20.1986 4.52295 20.5172 4.86266 20.9013 5.11338C21.4263 5.55181 21.7 5.80515 21.7 6.33224C21.7 6.85933 21.4263 7.11127 20.902 7.5511Z" fill="#ffffff"/>
<path d="M24.5 24.6292H25.2C25.9426 24.6292 26.6548 24.3326 27.1799 23.8047C27.705 23.2768 28 22.5608 28 21.8143V21.1105H26.6V21.8143C26.6 22.1875 26.4525 22.5455 26.19 22.8095C25.9274 23.0734 25.5713 23.2217 25.2 23.2217H24.5V24.6292Z" fill="#ffffff"/>
</svg>

